<svg id="Calque_1" data-name="Calque 1" xmlns="http://www.w3.org/2000/svg" viewBox="0 0 378.14 126.45"><defs><style>.cls-1,.cls-2,.cls-4,.cls-5{fill:#4296b4;}.cls-1{fill-rule:evenodd;}.cls-2,.cls-4{font-size:54px;}.cls-2{font-family:HelveticaNeue-Bold, Helvetica Neue;font-weight:700;}.cls-3{letter-spacing:0.05em;}.cls-4{font-family:HelveticaNeue-Light, Helvetica Neue;}.cls-5{opacity:0.17;}</style></defs><title>Plan de travail 1</title><path class="cls-1" d="M115.89,53.54a31.77,31.77,0,0,0-8.3-10l0-.05c-.24-.21-.48-.38-.71-.59a32.09,32.09,0,0,0-41.19,2h0a3.46,3.46,0,0,0-.86,3.59l6,11.28a1.28,1.28,0,0,0,1.14.67c.67,0,.93-.6,1.23-1.07A17,17,0,1,1,93.57,84.2h0a17,17,0,0,1-21.17-8L69,69.77h-.08c-.29-.63-.61-1.29-.95-2l-.4-.77-7-13.48A32.08,32.08,0,1,0,12,93.27l0,0c.23.21.47.38.71.59a32.08,32.08,0,0,0,41.19-2h0a3.48,3.48,0,0,0,.86-3.59l-6-11.28a1.27,1.27,0,0,0-1.14-.67c-.67,0-.93.6-1.23,1.07a17,17,0,1,1-22.2-24.12A17.39,17.39,0,0,1,26,52.56a17,17,0,0,1,21.17,8L52,69.73h0l7,13.48a32.08,32.08,0,1,0,56.89-29.67"/><text class="cls-2" transform="translate(136.89 90.3)"><tspan class="cls-3">PLIM</tspan><tspan x="143.96" y="0"> </tspan></text><text class="cls-4" transform="translate(298.65 90.3)">V</text><text class="cls-4" transform="translate(333.43 90.3)">4</text><rect class="cls-5" x="254.69" y="34.52" width="10.41" height="10.41"/><rect class="cls-5" x="269.07" y="20.14" width="8.71" height="8.71"/><rect class="cls-5" x="300.72" y="17.26" width="12.33" height="12.33"/><rect class="cls-5" x="300.72" y="54.66" width="19.98" height="19.98"/><rect class="cls-5" x="341" y="54.66" width="19.98" height="19.98"/><rect class="cls-5" x="309.35" y="94.94" width="10.63" height="10.63"/><rect class="cls-5" x="341" y="94.94" width="17" height="17"/><rect class="cls-5" x="280.58" y="34.52" width="17" height="17"/><rect class="cls-5" x="317.98" width="12.32" height="12.32"/><rect class="cls-5" x="361.13" y="74.8" width="17" height="17"/><rect class="cls-5" x="320.86" y="34.52" width="17" height="17"/><rect class="cls-5" x="320.86" y="74.8" width="17" height="17"/><rect class="cls-5" x="361.13" y="115.08" width="11.37" height="11.37"/></svg>